<?xml version="1.0" standalone="no"?>
<!DOCTYPE svg PUBLIC "-//W3C//DTD SVG 20010904//EN"
 "http://www.w3.org/TR/2001/REC-SVG-20010904/DTD/svg10.dtd">
<svg version="1.0" xmlns="http://www.w3.org/2000/svg"
 width="426.000000pt" height="426.000000pt" viewBox="0 0 426.000000 426.000000"
 preserveAspectRatio="xMidYMid meet">
<metadata>
Created by potrace 1.11, written by Peter Selinger 2001-2013
</metadata>
<g transform="translate(0.000000,426.000000) scale(0.100000,-0.100000)"
fill="#000000" stroke="none">
<path d="M2860 3886 c0 -228 -3 -337 -11 -341 -24 -16 -497 1 -1059 37 -184
11 -454 21 -600 22 -246 1 -268 0 -305 -19 -71 -36 -69 -18 -70 -605 l0 -525
-27 -105 c-14 -58 -47 -178 -72 -268 -25 -89 -46 -166 -46 -171 0 -5 20 -12
45 -15 36 -6 46 -12 51 -31 3 -13 4 -145 2 -293 l-3 -270 41 -7 c22 -3 141 -5
265 -4 338 2 363 -9 419 -199 24 -83 60 -129 106 -138 29 -5 39 1 113 69 97
89 187 139 296 163 66 15 128 18 352 19 l273 0 211 235 c208 230 359 405 359
416 0 3 -11 24 -24 47 -61 108 -78 249 -42 357 56 164 188 288 609 569 173
115 233 166 264 223 15 28 18 54 16 168 -2 74 2 152 8 174 24 88 76 126 175
127 l54 1 0 349 0 349 -700 0 -700 0 0 -334z"/>
<path d="M4075 2220 c-4 -6 -10 -8 -14 -6 -4 3 -13 1 -21 -4 -11 -7 -11 -11
-1 -24 15 -17 100 -61 107 -54 2 3 -3 21 -11 41 -16 39 -49 65 -60 47z"/>
<path d="M3870 2179 c0 -5 -4 -8 -10 -4 -5 3 -24 -9 -43 -27 -18 -18 -38 -34
-43 -35 -22 -4 -11 -23 33 -57 53 -41 91 -55 103 -36 4 6 11 12 16 13 5 1 8 5
7 10 -2 4 1 7 7 7 10 0 40 52 40 70 0 5 -5 10 -11 10 -6 0 -20 11 -31 25 -11
14 -23 23 -28 20 -5 -3 -11 -1 -15 5 -8 13 -25 13 -25 -1z"/>
<path d="M3570 1985 c-7 -8 -9 -15 -6 -15 4 0 2 -8 -3 -18 -11 -21 0 -45 23
-48 24 -3 68 43 64 68 -2 17 -11 23 -34 25 -19 2 -37 -4 -44 -12z"/>
<path d="M3593 1887 c-7 -12 16 -27 33 -20 7 2 11 10 8 17 -6 15 -32 17 -41 3z"/>
<path d="M4010 1178 c-173 -25 -400 -83 -565 -144 -74 -27 -266 -116 -443
-205 -187 -95 -350 -170 -406 -188 -265 -85 -524 -53 -685 86 -22 19 -60 63
-83 99 -47 72 -54 74 -139 47 -37 -12 -69 -32 -100 -63 -47 -47 -60 -76 -118
-275 -26 -89 -81 -168 -151 -216 -30 -21 -113 -64 -184 -96 -117 -51 -227
-116 -296 -172 l-25 -21 1723 0 1722 0 0 585 0 585 -57 -1 c-32 0 -119 -10
-193 -21z"/>
<path d="M907 939 c-9 -6 -14 -16 -11 -22 4 -7 4 -9 -1 -5 -9 9 -35 -9 -35
-23 0 -5 14 -9 30 -9 17 0 30 5 30 11 0 5 4 8 9 5 4 -3 13 6 20 20 15 34 14
39 -6 23 -11 -10 -14 -10 -9 -1 9 15 -2 15 -27 1z"/>
<path d="M186 874 c-9 -8 -14 -19 -11 -24 3 -5 0 -10 -7 -12 -7 -3 -4 -12 11
-27 21 -21 24 -22 42 -5 10 9 16 21 13 25 -3 5 0 9 7 9 8 0 7 5 -2 17 -12 14
-12 16 1 9 8 -4 6 0 -4 8 -25 20 -31 20 -50 0z"/>
<path d="M833 833 c-8 -21 -24 -44 -34 -51 -11 -7 -17 -18 -13 -23 3 -5 1 -8
-4 -7 -6 2 -10 -1 -10 -6 0 -5 -6 -12 -13 -17 -22 -13 -2 -22 36 -15 30 6 102
56 80 56 -4 0 -2 7 5 15 7 8 9 15 6 15 -4 0 -2 9 4 20 8 16 8 24 -4 35 -23 23
-36 18 -53 -22z"/>
<path d="M413 817 c-18 -7 -40 -19 -49 -28 -14 -15 -14 -20 5 -57 17 -33 25
-40 43 -37 43 8 82 81 61 113 -13 21 -22 22 -60 9z"/>
<path d="M292 768 c-18 -18 -15 -51 4 -44 8 3 12 2 9 -4 -3 -6 1 -10 10 -10
25 0 30 30 9 51 -16 15 -22 17 -32 7z"/>
<path d="M542 754 c-26 -18 -27 -57 -3 -86 15 -18 75 -25 85 -10 13 21 16 72
4 72 -6 0 -8 3 -5 7 9 8 -23 32 -43 33 -9 0 -26 -7 -38 -16z"/>
<path d="M196 688 c4 -7 3 -8 -5 -4 -12 8 -41 -10 -41 -24 0 -18 35 -20 47 -4
16 22 17 44 2 44 -5 0 -7 -5 -3 -12z"/>
</g>
</svg>
